<?xml version="1.0" standalone="no"?><!DOCTYPE svg PUBLIC "-//W3C//DTD SVG 1.1//EN" "http://www.w3.org/Graphics/SVG/1.1/DTD/svg11.dtd"><svg class="icon" width="200px" height="200.00px" viewBox="0 0 1024 1024" version="1.1" xmlns="http://www.w3.org/2000/svg"><path d="M125.098667 884.906667h158.208V457.898667l-158.037334 93.013333-0.170666 333.994667zM950.954667 235.861333a17.066667 17.066667 0 0 0-18.602667 3.754667l-115.712 115.541333a17.066667 17.066667 0 0 0-4.949333 12.117334v517.632h149.674666v-633.173334a17.066667 17.066667 0 0 0-10.410666-15.872z" fill="#FFF6E6" /><path d="M828.757333 380.245333v504.661334H556.032V442.026667l136.362667 61.610666 123.392-123.392h12.970666z" fill="#96DDFF" /><path d="M815.786667 380.245333l-123.392 123.392-136.362667-61.610666v34.133333l136.362667 61.610667 123.392-123.392h12.970666v-34.133334h-12.970666z" fill="#C7ECFF" /><path d="M692.394667 772.437333l-136.362667-61.610666v174.08h272.725333V649.045333h-12.970666l-123.392 123.392z" fill="#69BAF9" /><path d="M556.032 442.026667v442.88H283.306667V457.898667l127.658666-81.578667 145.066667 65.706667z" fill="#F6716F" /><path d="M410.965333 376.32l-127.658666 81.578667v34.133333l127.658666-81.578667 145.066667 65.706667v-34.133333l-145.066667-65.706667z" fill="#F6A2A2" /><path d="M283.306667 741.376v143.530667h272.725333v-159.402667l-145.066667-65.706667-127.658666 81.578667z" fill="#F0504D" /><path d="M410.965333 376.32m-59.904 0a59.904 59.904 0 1 0 119.808 0 59.904 59.904 0 1 0-119.808 0Z" fill="#EDF4FF" /><path d="M692.394667 504.490667m-59.904 0a59.904 59.904 0 1 0 119.808 0 59.904 59.904 0 1 0-119.808 0Z" fill="#EDF4FF" /><path d="M944.298667 363.349333a17.066667 17.066667 0 0 0 17.066666-17.066666v-94.549334a17.066667 17.066667 0 0 0-17.066666-17.066666h-94.549334a17.066667 17.066667 0 1 0 0 34.133333h53.418667l-86.528 86.698667L733.866667 439.296a76.117333 76.117333 0 0 0-102.4 18.602667L564.224 426.666667a17.066667 17.066667 0 0 0-3.072-1.365334L486.4 392.533333a77.141333 77.141333 0 1 0-148.138667 8.874667l-196.096 119.466667V336.213333l7.68 7.509334a17.066667 17.066667 0 1 0 24.064-24.064L136.533333 282.965333a17.066667 17.066667 0 0 0-17.066666-3.754666 17.066667 17.066667 0 0 0-10.581334 15.872v589.824a17.066667 17.066667 0 0 0 17.066667 17.066666h819.2a17.066667 17.066667 0 0 0 10.581333-29.184L919.722667 836.266667a17.066667 17.066667 0 0 0-24.234667 24.234666l7.68 7.509334h-57.344V375.466667l81.408-81.578667v53.248a17.066667 17.066667 0 0 0 17.066667 16.213333zM692.394667 460.8a43.008 43.008 0 1 1-43.008 43.008A43.008 43.008 0 0 1 692.394667 460.8z m-281.429334-128a42.837333 42.837333 0 1 1-42.837333 42.837333 42.837333 42.837333 0 0 1 42.837333-42.154666z m-17.066666 117.76v62.976a17.066667 17.066667 0 0 0 34.133333 0v-62.293333a76.458667 76.458667 0 0 0 43.861333-28.330667l66.901334 30.378667v414.549333h-110.762667v-57.002667a17.066667 17.066667 0 0 0-34.133333 0v57.002667H300.373333V463.872l55.466667-34.133333a76.629333 76.629333 0 0 0 38.058667 21.504zM142.165333 560.64l124.074667-75.776v382.976H142.165333z m669.525334 307.2h-102.4v-57.002667a17.066667 17.066667 0 0 0-34.133334 0v57.002667h-102.4V468.821333l44.032 19.968a79.018667 79.018667 0 0 0-1.706666 15.701334A77.141333 77.141333 0 0 0 675.328 580.266667v62.976a17.066667 17.066667 0 0 0 34.133333 0V580.266667a76.629333 76.629333 0 0 0 47.786667-116.053334l54.442667-54.613333z" fill="#3D3D63" /><path d="M410.965333 729.088a17.066667 17.066667 0 0 0 17.066667-17.066667v-98.986666a17.066667 17.066667 0 0 0-34.133333 0v98.986666a17.066667 17.066667 0 0 0 17.066666 17.066667z" fill="#3D3D63" /></svg>