<?xml version="1.0" standalone="no"?><!DOCTYPE svg PUBLIC "-//W3C//DTD SVG 1.1//EN" "http://www.w3.org/Graphics/SVG/1.1/DTD/svg11.dtd"><svg class="icon" width="200px" height="200.00px" viewBox="0 0 1024 1024" version="1.1" xmlns="http://www.w3.org/2000/svg"><path d="M512 168.533333l345.6 266.666667L725.333333 870.4H298.666667L166.4 437.333333 512 168.533333M512 85.333333L85.333333 411.733333 247.466667 938.666667h526.933333L938.666667 411.733333 512 85.333333z m0 0" fill="#333333" /><path d="M512 360.533333l160 121.6-61.866667 196.266667h-198.4l-59.733333-196.266667 160-121.6m0-83.2l-234.666667 179.2L366.933333 746.666667h290.133334L746.666667 456.533333 512 277.333333z m0 0" fill="#333333" /><path d="M635.733333 512l-119.466666-298.666667L256 469.333333l85.333333 277.333334 356.266667 64z" fill="#5C6BC0" /></svg>