<?xml version="1.0" standalone="no"?><!DOCTYPE svg PUBLIC "-//W3C//DTD SVG 1.1//EN" "http://www.w3.org/Graphics/SVG/1.1/DTD/svg11.dtd"><svg class="icon" width="200px" height="200.00px" viewBox="0 0 1024 1024" version="1.1" xmlns="http://www.w3.org/2000/svg"><path d="M753.066667 778.666667c-42.666667 0-81.066667-38.4-81.066667-78.933334 0-42.666667 38.4-81.066667 81.066667-81.066666 42.666667 0 78.933333 38.4 78.933333 81.066666 0 40.533333-38.4 78.933333-78.933333 78.933334zM430.933333 512c-42.666667 0-78.933333-38.4-78.933333-81.066667 0-42.666667 38.4-78.933333 78.933333-78.933333 42.666667 0 81.066667 38.4 81.066667 78.933333 0 44.8-38.4 81.066667-81.066667 81.066667z" fill="#5C6BC0" /><path d="M672 298.666667C640 298.666667 618.666667 277.333333 618.666667 245.333333S640 192 672 192s53.333333 21.333333 53.333333 53.333333-21.333333 53.333333-53.333333 53.333334zM885.333333 458.666667c-32 0-53.333333-21.333333-53.333333-53.333334s21.333333-53.333333 53.333333-53.333333 53.333333 21.333333 53.333334 53.333333-21.333333 53.333333-53.333334 53.333334zM245.333333 352C213.333333 352 192 330.666667 192 298.666667s21.333333-53.333333 53.333333-53.333334 53.333333 21.333333 53.333334 53.333334-21.333333 53.333333-53.333334 53.333333zM512 725.333333c-32 0-53.333333-21.333333-53.333333-53.333333s21.333333-53.333333 53.333333-53.333333 53.333333 21.333333 53.333333 53.333333-21.333333 53.333333-53.333333 53.333333zM672 512C640 512 618.666667 490.666667 618.666667 458.666667s21.333333-53.333333 53.333333-53.333334 53.333333 21.333333 53.333333 53.333334-21.333333 53.333333-53.333333 53.333333zM298.666667 778.666667c-32 0-53.333333-21.333333-53.333334-53.333334s21.333333-53.333333 53.333334-53.333333 53.333333 21.333333 53.333333 53.333333-21.333333 53.333333-53.333333 53.333334z" fill="#333333" /><path d="M149.333333 874.666667V85.333333H85.333333v853.333334h853.333334v-64z"  /></svg>